<svg xmlns="http://www.w3.org/2000/svg" viewBox="0 0 18 18" class="design-iconfont">
  <path d="M15,0.75 C15,0.33579 14.664225,0 14.25,0 L0.75,0 C0.33579,0 0,0.33579 0,0.75 L0,12.75 C0,13.164225 0.33579,13.5 0.75,13.5 L14.25,13.5 C14.664225,13.5 15,13.164225 15,12.75 L15,0.75 Z M1.5,9 L4.06203,9 C4.6407,10.324425 5.96226,11.25 7.5,11.25 C9.037725,11.25 10.3593,10.324425 10.938,9 L13.5,9 L13.5,12 L1.5,12 L1.5,9 Z M1.5,1.5 L13.5,1.5 L13.5,7.5 L9.75,7.5 C9.75,8.742675 8.742675,9.75 7.5,9.75 C6.257325,9.75 5.25,8.742675 5.25,7.5 L1.5,7.5 L1.5,1.5 Z M10.5,4.5 L8.25,4.5 L8.25,2.25 L6.75,2.25 L6.75,4.5 L4.5,4.5 L7.5,7.875 L10.5,4.5 Z" transform="translate(2 2)" fill="#4273F6" fill-rule="nonzero"/>
</svg>
