<?xml version="1.0" standalone="no"?><!DOCTYPE svg PUBLIC "-//W3C//DTD SVG 1.1//EN" "http://www.w3.org/Graphics/SVG/1.1/DTD/svg11.dtd"><svg t="1760593954610" class="icon" viewBox="0 0 1024 1024" version="1.1" xmlns="http://www.w3.org/2000/svg" p-id="4986" xmlns:xlink="http://www.w3.org/1999/xlink" width="200" height="200"><path d="M512 448m-64 0a64 64 0 1 0 128 0 64 64 0 1 0-128 0Z" fill="#8484AF" p-id="4987"></path><path d="M768 32h-512a128 128 0 0 0-128 128v704a128 128 0 0 0 128 128h512a128 128 0 0 0 128-128v-704a128 128 0 0 0-128-128z m-256 688a272 272 0 0 1-272-272 272 272 0 0 1 272-272 272 272 0 0 1 272 272 272 272 0 0 1-272 272z m256 200a56 56 0 0 1-56-56 56 56 0 0 1 56-56 56 56 0 0 1 56 56 56 56 0 0 1-56 56z" fill="#8484AF" p-id="4988"></path></svg>