<?xml version="1.0" standalone="no"?><!DOCTYPE svg PUBLIC "-//W3C//DTD SVG 1.1//EN" "http://www.w3.org/Graphics/SVG/1.1/DTD/svg11.dtd"><svg t="1757135984247" class="icon" viewBox="0 0 1024 1024" version="1.1" xmlns="http://www.w3.org/2000/svg" p-id="8143" xmlns:xlink="http://www.w3.org/1999/xlink" width="200" height="200"><path d="M275.75 320.75v-5.625 5.625C275.75 174.5 382.625 62 512 62c123.75 0 236.25 106.875 236.25 230.625v28.125h84.375c56.25 0 101.25 50.625 101.25 106.875v427.5c0 61.875-45 106.875-101.25 106.875H191.375c-56.25 0-101.25-50.625-101.25-106.875V427.625c0-61.875 45-106.875 101.25-106.875h84.375z m56.25 0h360v-28.125C692 213.875 618.875 118.25 512 118.25 410.75 118.25 332 208.25 332 320.75v-5.625 5.625z m-140.625 56.25c-22.5 0-45 22.5-45 50.625v427.5c0 28.125 22.5 50.625 45 50.625h641.25c22.5 0 45-22.5 45-50.625V427.625c0-28.125-22.5-50.625-45-50.625H191.375z m320.625 393.75c-67.5 0-129.375-56.25-129.375-123.75s56.25-123.75 129.375-123.75c67.5 0 129.375 56.25 129.375 123.75S579.5 770.75 512 770.75z m0-196.875c-39.375 0-73.125 33.75-73.125 67.5s33.75 67.5 73.125 67.5 73.125-33.75 73.125-67.5S551.375 573.875 512 573.875z" p-id="8144"></path></svg>