<?xml version="1.0" standalone="no"?><!DOCTYPE svg PUBLIC "-//W3C//DTD SVG 1.1//EN" "http://www.w3.org/Graphics/SVG/1.1/DTD/svg11.dtd"><svg t="1749455216672" class="icon" viewBox="0 0 1024 1024" version="1.1" xmlns="http://www.w3.org/2000/svg" p-id="4266" xmlns:xlink="http://www.w3.org/1999/xlink" width="200" height="200"><path d="M810.666667 128a85.333333 85.333333 0 0 1 85.333333 85.333333v597.333334a85.333333 85.333333 0 0 1-85.333333 85.333333h-597.333334a85.333333 85.333333 0 0 1-85.333333-85.333333v-597.333334a85.333333 85.333333 0 0 1 85.333333-85.333333h597.333334z m0 85.333333h-597.333334v597.333334h597.333334v-597.333334z" p-id="4267"></path><path d="M259.413333 421.632v128c0 10.666667-5.12 16.042667-15.104 16.042667-9.984 0-14.933333-5.034667-14.933333-15.018667V385.706667c0-14.677333 5.290667-22.016 15.957333-22.016 8.021333 0 15.018667 4.266667 20.992 12.970666l83.029334 129.024V379.648c0.682667-10.666667 5.973333-15.957333 15.957333-15.957333 9.984 0 15.018667 5.290667 15.018667 15.957333v164.010667c0 14.677333-5.290667 22.016-15.957334 22.016-7.338667 0.682667-13.653333-3.413333-19.029333-11.946667L259.328 421.546667zM443.306667 474.624v58.026667h83.029333c11.946667 0 17.664 5.034667 17.066667 15.018666 0.597333 9.386667-5.12 13.653333-17.066667 12.970667H430.336c-11.946667 0-18.005333-4.949333-18.005333-14.933333V385.706667c-1.365333-12.032 5.376-17.749333 19.968-17.066667h93.013333c12.714667-0.682667 18.688 4.010667 18.005333 13.994667 0.682667 10.069333-5.290667 14.677333-17.92 13.994666h-82.090666v51.029334h75.093333c11.946667 0 17.578667 4.693333 16.896 13.994666 0.682667 9.386667-4.949333 13.653333-16.981333 12.970667h-75.008zM592.298667 377.685333l33.024 128.938667 36.010666-125.952c4.010667-11.946667 10.325333-17.664 19.029334-17.066667 9.301333-0.597333 15.957333 5.376 19.968 18.090667l37.034666 124.928 32-128c3.328-9.984 8.618667-14.933333 15.957334-14.933333 13.312 0.682667 18.005333 7.68 13.994666 20.992h1.024l-41.984 160c-3.413333 15.36-10.325333 22.357333-20.992 20.992-9.386667 1.365333-16.384-5.717333-20.992-20.992l-34.986666-122.026667-36.096 122.026667c-3.925333 14.677333-10.922667 21.674667-20.992 20.992-9.984 0.682667-16.981333-6.314667-20.992-20.992l-39.936-161.024v1.024c-3.413333-13.312 0.938667-20.309333 12.970666-20.992 8.021333-0.682667 13.312 4.010667 15.957334 13.994666zM640 682.666667a42.666667 42.666667 0 0 1 7.68 84.650666L640 768h-256a42.666667 42.666667 0 0 1-7.68-84.650667L384 682.666667h256z" p-id="4268"></path></svg>