<?xml version="1.0" standalone="no"?><!DOCTYPE svg PUBLIC "-//W3C//DTD SVG 1.1//EN" "http://www.w3.org/Graphics/SVG/1.1/DTD/svg11.dtd"><svg t="1757135942135" class="icon" viewBox="0 0 1024 1024" version="1.1" xmlns="http://www.w3.org/2000/svg" p-id="7147" xmlns:xlink="http://www.w3.org/1999/xlink" width="200" height="200"><path d="M83.2 435.2l601.6 0c32 0 57.6 25.6 57.6 57.6l0 422.4c0 32-25.6 57.6-57.6 57.6L83.2 972.8c-32 0-57.6-25.6-57.6-57.6L25.6 492.8C25.6 460.8 51.2 435.2 83.2 435.2L83.2 435.2zM352 716.8l0 89.6c0 6.4 6.4 6.4 6.4 6.4l51.2 0c6.4 0 6.4-6.4 6.4-6.4l0-89.6c25.6-12.8 38.4-38.4 38.4-64 0-38.4-32-70.4-70.4-70.4-38.4 0-70.4 32-70.4 70.4C313.6 684.8 326.4 704 352 716.8L352 716.8zM352 716.8" p-id="7148"></path><path d="M908.8 288c0-76.8-64-147.2-147.2-147.2-76.8 0-147.2 64-147.2 147.2l0 153.6L531.2 441.6 531.2 281.6c0-128 102.4-236.8 236.8-236.8 128 0 236.8 102.4 236.8 236.8l0 153.6-89.6 0L908.8 288 908.8 288zM908.8 288" p-id="7149"></path></svg>